 <svg xmlns="http://www.w3.org/2000/svg"   >
    <defs>
       <symbol id='bell'>
         <path d="M20.3748 37.6252C20.3748 40.0417 18.4166 42 16 42C13.585 42 11.6252 40.0417 11.6252 37.6252H20.3748Z" fill="currentColor"/>
<path d="M5.5 22.3293C5.5 27.2753 3.49397 31.7562 0.25 35.0002H31.75C28.506 31.7562 26.5 27.2753 26.5 22.3293V17.4998C26.5 14.8066 25.4762 12.359 23.8083 10.5H24.7502C27.6487 10.5 30.0002 8.14853 30.0002 5.25C30.0002 2.35148 27.6487 0 24.7502 0C23.3007 0 21.9881 0.588 21.0384 1.53825L16 6.82553L10.9616 1.53825C10.0113 0.588 8.69882 0 7.24983 0C4.3513 0 1.99983 2.35148 1.99983 5.25C1.99983 8.14853 4.3513 10.5 7.24983 10.5H8.1901C6.52375 12.3596 5.5 14.8066 5.5 17.4998V22.3293ZM23.5726 3.95115C23.7044 3.82147 24.1197 3.50018 24.7502 3.50018C25.7157 3.50018 26.5 4.2861 26.5 5.25C26.5 6.2139 25.7157 6.99983 24.7502 6.99983H20.6694L23.5726 3.95115ZM5.5 5.25C5.5 4.2861 6.28435 3.50018 7.24983 3.50018C7.88035 3.50018 8.29562 3.82147 8.4274 3.95115L11.3306 7.00035H7.24983C6.28435 6.99983 5.5 6.2139 5.5 5.25Z" fill="currentColor"/>
      </symbol>
    </defs>

     <defs>
       <symbol id='ball-2'>
        <path d="M18.138 15.4019V13.1455H17.5299C17.5355 13.0685 17.5383 12.9915 17.5383 12.9131C17.5383 11.1445 16.2349 9.6754 14.5386 9.41453V8.48213H15.0197C15.4028 8.8662 15.8438 9.22553 16.3296 9.5424C17.3614 10.2177 19.4778 10.7716 20.3957 9.33473C20.2706 9.09487 20.0368 8.72433 19.8268 8.48587C19.7321 8.78453 18.0404 10.0949 15.2003 7.077C15.2003 7.077 19.5487 6.125 20.5782 8.95113C20.679 8.53533 20.8437 8.07473 21.0052 7.623C21.2506 6.93887 21.5036 6.23187 21.5647 5.5944C21.6688 4.49213 21.1414 3.94847 20.6799 3.68573C20.349 3.49767 19.9617 3.40247 19.5268 3.40247C18.5636 3.40247 17.3372 3.8752 15.8807 4.80853C15.3394 5.15527 14.8704 5.49967 14.539 5.75493V0H13.4606V5.7554C13.1288 5.49967 12.6598 5.1562 12.1175 4.809C10.662 3.87567 9.43511 3.40247 8.4719 3.40247C8.03744 3.40247 7.64964 3.49767 7.3183 3.68573C6.8577 3.948 6.3299 4.4926 6.43397 5.5944C6.4951 6.23187 6.74804 6.93933 6.99397 7.62347C7.1559 8.0752 7.32064 8.5358 7.42144 8.9516C8.4495 6.125 12.7988 7.07747 12.7988 7.07747C9.95917 10.0954 8.26751 8.785 8.17277 8.4868C7.96324 8.72573 7.72804 9.09627 7.6039 9.3352C8.52137 10.7725 10.6372 10.2195 11.67 9.54333C12.1558 9.22507 12.5963 8.86713 12.9799 8.48307H13.461V9.41547C11.7647 9.67633 10.4604 11.1454 10.4604 12.9141C10.4604 12.9925 10.4641 13.0695 10.4688 13.1465H9.86164V15.4028C4.3629 17.1542 0.380371 22.3015 0.380371 28.3813C0.380838 35.903 6.47784 42 14 42C21.5218 42 27.6192 35.903 27.6192 28.3808C27.6192 22.3011 23.6358 17.1533 18.138 15.4019ZM5.28644 29.4966L3.8813 29.5834C3.87617 29.5078 3.77117 27.6976 4.30084 25.62C5.02417 22.7817 6.59077 20.8171 8.83124 19.9379L9.34551 21.2483C4.94531 22.9745 5.28224 29.4313 5.28644 29.4966ZM15.4056 13.1455H12.5949C12.5823 13.0699 12.5744 12.9925 12.5744 12.9131C12.5744 12.1263 13.2142 11.4865 14.0005 11.4865C14.7868 11.4865 15.4266 12.1268 15.4266 12.9131C15.4257 12.9925 15.4182 13.0699 15.4056 13.1455Z" fill="currentColor"/>
      </symbol>
    </defs>

     <defs>
       <symbol id='pine'>
        <path fill-rule="evenodd" clip-rule="evenodd" d="M4.00003 10.3333C3.33336 9.06666 1.33336 8.26666 3.00003 6.46666C1.13336 5.93333 0.266696 4.33333 0.533362 2.8C0.733362 1.6 2.53336 0.199997 3.80003 0.199997C5.33336 0.199997 6.4667 1.4 6.80003 3C7.53336 2.73333 7.80003 2.46666 8.2667 2.6C8.73336 2.73333 9.33336 3.46666 9.6667 3.86666C10.2 4.53333 10.6667 4.73333 11.5334 4.4C26.4 1.13333 38 30.9333 37.3334 41.7333C30.1334 42 -4.06664 26.5333 4.00003 10.3333ZM5.73336 3.6C5.6667 2.46666 5.00003 1.66666 4.00003 1.6C2.8667 1.53333 1.8667 2.33333 1.93336 3.53333C2.00003 4.66666 2.73336 5.4 3.73336 5.4C4.80003 5.33333 5.6667 4.4 5.73336 3.6Z" fill="currentColor"/>
      </symbol>
    </defs>

     <defs>
       <symbol id='star'>
       <path d="M42 17.1098C42 14.9538 40.4254 13.1679 38.3622 12.8306C38.3583 12.8253 38.3521 12.8205 38.3473 12.8188L29.1537 11.5806L25.1234 3.41381C24.4969 1.78369 22.9219 0.623001 21.0704 0.623001C19.152 0.623001 17.5258 1.86725 16.9518 3.59319L13.0839 11.5806L4.088 12.7689C4.08713 12.7741 4.08582 12.7811 4.0845 12.7864C1.87075 12.9889 0.137817 14.8474 0.137817 17.1102C0.137817 18.5382 0.828192 19.7999 1.89 20.5944L8.11913 26.8656L6.60494 35.1816C6.60975 35.1842 6.61413 35.1864 6.61938 35.1886C6.45269 35.6501 6.35775 36.1427 6.35775 36.6599C6.35775 39.0591 8.30244 41.0043 10.7034 41.0043C11.515 41.0043 12.2741 40.7781 12.9268 40.3878L21.119 36.3108L28.9905 40.2526C29.6879 40.7282 30.5301 41.0047 31.4374 41.0047C33.8358 41.0047 35.7805 39.06 35.7805 36.6603C35.7805 36.5352 35.7713 36.4092 35.7604 36.2832C35.7687 36.2788 35.7726 36.274 35.7805 36.267L34.1202 26.8664L40.5182 20.4199C40.5178 20.4142 40.509 20.4028 40.5011 20.3901C41.4173 19.5926 42 18.4214 42 17.1098Z" fill="currentColor"/>
      </symbol>
    </defs>

     <defs>
       <symbol id='snowflake'>
      <path d="M17.9135 41.5691C17.5199 41.3141 17.1986 40.724 17.1986 40.2536V36.3367C17.1986 35.8701 16.8643 35.6777 16.4582 35.9045L14.8 36.8348C14.3926 37.0621 13.7252 37.0621 13.3216 36.8294L13.1986 36.7626C12.7907 36.5287 12.461 35.9545 12.461 35.4866V35.2073C12.461 34.742 12.7924 34.1678 13.1998 33.9373L16.3771 32.1342C16.7828 31.899 17.1159 31.3295 17.1159 30.8616V28.8725C17.1159 28.4021 16.7933 28.2257 16.3998 28.4777L14.4527 29.7305C14.0591 29.9809 13.7378 29.8078 13.7378 29.3395V27.127C13.7378 26.6587 13.406 26.4692 13.0016 26.7032L11.2468 27.7133C10.8411 27.9472 10.5093 28.5222 10.5093 28.9892V32.592C10.5093 33.0599 10.1834 33.6454 9.78689 33.8923L9.46769 34.0889C9.06911 34.3354 8.42525 34.3258 8.03381 34.07L7.95947 34.0179C7.57181 33.76 7.25135 33.167 7.25135 32.6966V30.8448C7.25135 30.3786 6.91787 30.1854 6.51047 30.4126L3.09083 32.3421C2.68511 32.5689 1.99925 32.6101 1.56791 32.4274L1.04123 32.2073C0.611995 32.0275 0.257935 31.4924 0.257935 31.0304V30.4857C0.257935 30.0191 0.593095 29.4538 1.00511 29.2291L4.65449 27.2336C5.06693 27.0094 5.05937 26.6528 4.64105 26.4411L2.94467 25.5893C2.52509 25.3798 2.18489 24.8241 2.18489 24.3558V24.0064C2.18489 23.5385 2.52215 22.9727 2.93207 22.7485L3.26387 22.5641C3.67463 22.3398 4.33991 22.3495 4.74311 22.5893L7.89059 24.4427C8.29463 24.6792 8.95697 24.6821 9.36185 24.4482L11.0918 23.4507C11.498 23.2163 11.8113 23.0126 11.7911 22.995C11.7701 22.9765 11.419 22.7732 11.0129 22.5422L9.21359 21.5074C8.80745 21.2759 8.80031 20.8841 9.19679 20.6375L10.9335 19.5619C11.3296 19.3124 11.3258 18.9189 10.9192 18.6862L9.19973 17.6862C8.79443 17.456 8.13251 17.4594 7.73057 17.6929L4.58477 19.5434C4.18031 19.7803 3.50705 19.8009 3.08747 19.5943L2.87999 19.4905C2.46167 19.2818 2.11937 18.7307 2.11937 18.2603V17.9168C2.11937 17.4489 2.45285 16.8802 2.86193 16.6505L4.50035 15.7286C4.90901 15.5001 4.90439 15.1288 4.49447 14.9045L1.00553 13.0108C0.594775 12.7907 0.258355 12.2245 0.258355 11.7571V11.2161C0.258355 10.7499 0.598135 10.1926 1.01435 9.975L1.41587 9.76878C1.83293 9.5529 2.50577 9.5718 2.90981 9.80154L6.34793 11.7877C6.75323 12.0217 7.08419 11.8306 7.08419 11.3639V9.44958C7.08419 8.9817 7.40213 8.38572 7.78853 8.12448L7.85993 8.07618C8.24675 7.81326 8.89565 7.791 9.30263 8.02704L9.64241 8.22192C10.0473 8.45628 10.3787 9.03168 10.3757 9.49914L10.3678 13.2044C10.3678 13.6752 10.6979 14.246 11.1065 14.4803L12.9285 15.5194C13.3325 15.7538 13.6652 15.5593 13.6631 15.0914L13.6564 12.9709C13.6551 12.5013 13.9907 12.3022 14.4035 12.5223L16.3662 13.5765C16.7782 13.8008 17.1163 13.5983 17.1163 13.1305V11.1392C17.1163 10.6726 16.7828 10.0976 16.3775 9.86622L13.199 8.05686C12.7912 7.82544 12.4615 7.25298 12.4615 6.78636V6.5268C12.4615 6.05598 12.7916 5.481 13.1952 5.24706L13.3225 5.17398C13.7278 4.93752 14.3939 4.93332 14.8009 5.16474L16.4578 6.0963C16.8656 6.32772 17.1999 6.1299 17.1999 5.66286V1.75476C17.1999 1.2873 17.5178 0.695101 17.9097 0.436381L18.2843 0.192781C18.6749 -0.0617392 19.3163 -0.0659392 19.7098 0.189841L20.0937 0.441841C20.4872 0.694681 20.809 1.28688 20.809 1.75434V5.66118C20.809 6.1278 21.1454 6.32604 21.5528 6.1005L23.3168 5.12064C23.7267 4.89636 24.3806 4.92072 24.7721 5.1786L24.9871 5.3235C25.3769 5.5797 25.6969 6.17484 25.6969 6.64272V6.70614C25.6969 7.17276 25.3634 7.74942 24.9565 7.97916L21.6179 9.87C21.2117 10.0997 20.8804 10.6722 20.8804 11.1388V13.13C20.8804 13.5979 21.2063 13.7781 21.6053 13.5366L23.4482 12.4152C23.8456 12.1724 24.1732 12.353 24.1732 12.8209V15.1385C24.1732 15.6089 24.5117 15.8046 24.9216 15.5845L26.8192 14.5484C27.2316 14.3241 27.5676 13.7613 27.5676 13.2905V9.2064C27.5676 8.73558 27.9145 8.1963 28.3396 7.99638L28.432 7.95102C28.8557 7.7553 29.5525 7.74984 29.9809 7.9401L30.1426 8.01024C30.5706 8.2005 30.9217 8.73516 30.9217 9.2064V11.2018C30.9217 11.6714 31.2581 11.8747 31.6702 11.6508L35.2263 9.7293C35.6375 9.50754 36.3007 9.52686 36.7018 9.76626L37.0151 9.95904C37.4141 10.2026 37.7417 10.7831 37.7417 11.2539V11.6428C37.7417 12.1107 37.4086 12.6819 37.0042 12.9129L33.5467 14.8798C33.1389 15.1112 33.1423 15.49 33.5476 15.7198L35.149 16.6139C35.5589 16.8441 35.8937 17.414 35.8937 17.8815V18.1789C35.8937 18.6467 35.5581 19.215 35.1478 19.4393L35.0356 19.5044C34.6274 19.727 33.9629 19.719 33.5593 19.4821L30.2867 17.5459C29.8835 17.3095 29.2304 17.3204 28.8347 17.569L26.996 18.7417C26.6012 18.9886 26.6037 19.3981 26.9985 19.6442L28.7247 20.7203C29.1212 20.9693 29.1153 21.3629 28.7092 21.5956L26.9187 22.622C26.5155 22.8572 26.5201 23.2252 26.9351 23.444L28.7999 24.4209C29.2148 24.6368 29.8881 24.6271 30.2976 24.4003L33.5497 22.5821C33.9579 22.3566 34.6068 22.3898 34.9877 22.6594L35.12 22.7514C35.5027 23.0257 35.8139 23.6284 35.8139 24.092V24.3008C35.8139 24.7716 35.4808 25.3403 35.0713 25.5709L33.5824 26.4062C33.175 26.6347 33.1712 27.022 33.5744 27.258L36.8429 29.2013C37.2452 29.4407 37.5741 30.0187 37.5741 30.4853V30.9922C37.5741 31.4601 37.2268 32.0002 36.8017 32.1976L36.346 32.4072C35.9185 32.6012 35.2393 32.5689 34.8307 32.3366L31.6601 30.5327C31.2523 30.3013 30.9213 30.4954 30.9213 30.9641V32.7629C30.9213 33.2308 30.5878 33.8024 30.1766 34.0292L29.9923 34.1355C29.584 34.3623 28.9166 34.3581 28.513 34.1284L28.3547 34.0364C27.946 33.8024 27.6159 33.2308 27.6159 32.7634V29.1497C27.6159 28.6818 27.2841 28.1106 26.875 27.8771L24.9103 26.7586C24.5062 26.5272 24.1727 26.7208 24.1727 27.1879V29.1808C24.1727 29.6486 23.8451 29.8313 23.4461 29.5852L21.6049 28.4647C21.2063 28.2185 20.8799 28.4029 20.8799 28.8729V30.862C20.8799 31.3299 21.2113 31.8994 21.6175 32.1346L24.7943 33.9377C25.2013 34.1687 25.5348 34.7424 25.5348 35.2078V35.5996C25.5348 36.0679 25.19 36.6227 24.7729 36.8298L24.6877 36.8726C24.2706 37.0822 23.5931 37.0629 23.1862 36.8353L21.5477 35.9079C21.1412 35.6786 20.8077 35.8705 20.8077 36.3376V40.2545C20.8077 40.7249 20.4851 41.3154 20.0899 41.567L19.7086 41.8097C19.315 42.0659 18.6737 42.063 18.281 41.8097L17.9135 41.5691Z" fill="currentColor"/>
      </symbol>
    </defs>
     <defs>
       <symbol id='bird'>
<path d="M41.1397 10.8946C39.8196 9.93181 38.9 8.45165 38.5588 7.12476C37.712 4.22201 35.1937 2.07629 32.1385 1.65798L31.4493 1.56314C30.05 1.36831 28.6242 1.56544 27.3303 2.13262C26.0365 2.6998 24.9253 3.61478 24.1204 4.7758L21.5234 8.64641C15.2776 3.65044 11.3807 7.5456 6.49736 1.23375C4.91982 -0.80613 1.68683 -0.210001 0.918806 2.25496C0.141923 4.73098 -0.0908876 7.34562 0.236306 9.91996C0.262002 10.1239 0.333754 10.3193 0.44613 10.4914C0.558507 10.6634 0.708562 10.8077 0.884935 10.9132C5.40163 13.5958 10.3908 14.8499 15.6188 14.0073C15.7998 13.9782 15.9847 13.9861 16.1625 14.0306C16.3403 14.075 16.5073 14.1551 16.6532 14.2659C16.7992 14.3767 16.9212 14.516 17.0118 14.6753C17.1024 14.8347 17.1597 15.0107 17.1803 15.1928C17.2156 15.5438 17.1149 15.895 16.8988 16.1738C16.6828 16.4527 16.368 16.6381 16.0193 16.6916C11.744 17.375 7.39917 16.8483 3.16784 15.0937C3.03654 15.0383 2.89108 15.0256 2.75218 15.0576C2.61328 15.0896 2.48802 15.1646 2.39421 15.2719C2.3004 15.3793 2.24283 15.5134 2.2297 15.6554C2.21657 15.7973 2.24854 15.9397 2.32106 16.0625C4.24494 19.3403 7.30941 21.829 11.4213 23.0306L4.65731 32.7515C4.06675 33.6071 3.80427 34.6469 3.91795 35.6803C4.03163 36.7137 4.51387 37.6716 5.27631 38.3783C5.37079 38.4659 5.48282 38.5323 5.60496 38.5732C5.7271 38.6141 5.85654 38.6286 5.98469 38.6156C6.11284 38.6026 6.23677 38.5625 6.34822 38.498C6.45968 38.4334 6.55613 38.3459 6.63115 38.2412L11.8761 30.9716C11.9834 30.8229 12.1198 30.6975 12.277 30.603C12.4342 30.5085 12.6089 30.4469 12.7906 30.422C12.9723 30.3971 13.1572 30.4093 13.334 30.4579C13.5109 30.5065 13.676 30.5905 13.8194 30.7049C14.391 31.1587 14.4782 31.9962 14.0514 32.5881L8.58127 40.1701C8.50508 40.2753 8.45235 40.3956 8.42663 40.5229C8.40091 40.6502 8.40281 40.7815 8.43218 40.908C8.46156 41.0345 8.51774 41.1532 8.59692 41.2561C8.6761 41.3591 8.77645 41.4438 8.89119 41.5046C9.80243 41.984 10.8553 42.1208 11.8588 41.8902C12.8623 41.6597 13.7499 41.077 14.3605 40.248L17.7239 35.6831C17.9526 35.3695 18.2698 35.1315 18.6348 34.9995C18.9998 34.8674 19.3958 34.8475 19.7722 34.9421C29.1663 37.3224 37.5494 28.1976 34.1386 19.7366C33.49 18.1277 34.1022 15.4943 35.8161 15.1581L40.3954 14.2563C40.7539 14.1857 41.084 14.0122 41.3454 13.7569C41.6068 13.5016 41.7881 13.1756 41.867 12.8189C41.946 12.4621 41.9193 12.0901 41.7901 11.7484C41.6609 11.4066 41.4349 11.1099 41.1397 10.8946ZM31.1148 10.2561C30.8468 10.2561 30.5849 10.1767 30.3621 10.0278C30.1393 9.87892 29.9656 9.66733 29.8631 9.41976C29.7605 9.1722 29.7337 8.89978 29.786 8.63697C29.8382 8.37416 29.9673 8.13275 30.1568 7.94327C30.3462 7.75379 30.5876 7.62476 30.8505 7.57248C31.1133 7.52021 31.3857 7.54704 31.6333 7.64958C31.8808 7.75212 32.0924 7.92578 32.2413 8.14858C32.3902 8.37138 32.4696 8.63333 32.4696 8.90129C32.4696 9.26061 32.3269 9.60522 32.0728 9.8593C31.8187 10.1134 31.4741 10.2561 31.1148 10.2561Z" fill="currentColor"/>
      </symbol>
    </defs>

     <defs>
       <symbol id='default'>
<path fill-rule="evenodd" clip-rule="evenodd" d="M13.9965 0.378902C14.6157 0.929279 14.6715 1.87739 14.1211 2.49656L6.12111 11.4966C5.84665 11.8053 5.457 11.9872 5.04406 11.9994C4.63112 12.0115 4.23146 11.8528 3.93934 11.5607L0.43934 8.06068C-0.146447 7.47489 -0.146447 6.52514 0.43934 5.93936C1.02513 5.35357 1.97487 5.35357 2.56066 5.93936L4.93577 8.31447L11.8789 0.50347C12.4293 -0.115704 13.3774 -0.171475 13.9965 0.378902Z" fill="currentColor"/>
      </symbol>
    </defs>

</svg>



